<svg width="44" height="44" viewBox="0 0 44 44" fill="none" xmlns="http://www.w3.org/2000/svg">
<path d="M32.3125 14.8002V14.4375C32.3125 11.9247 30.4511 9.70234 27.0686 8.18125C24.212 6.89562 20.4531 6.1875 16.5 6.1875C12.5469 6.1875 8.78797 6.89562 5.93141 8.18125C2.54891 9.70234 0.6875 11.9247 0.6875 14.4375V21.3125C0.6875 23.8253 2.54891 26.0477 5.93141 27.5687C7.76955 28.3642 9.70515 28.9121 11.6875 29.1981V29.5625C11.6875 32.0753 13.5489 34.2977 16.9314 35.8187C19.788 37.1044 23.5469 37.8125 27.5 37.8125C31.4531 37.8125 35.212 37.1044 38.0686 35.8187C41.4511 34.2977 43.3125 32.0753 43.3125 29.5625V22.6875C43.3125 18.8822 38.9658 15.8263 32.3125 14.8002ZM39.1875 22.6875C39.1875 24.0195 35.4458 26.5513 28.5639 26.7919C30.9942 25.3344 32.3125 23.4266 32.3125 21.3125V18.9819C36.7606 19.7914 39.1875 21.5669 39.1875 22.6875ZM18.4542 25.3739C17.8303 25.4152 17.1789 25.4375 16.5 25.4375C15.6269 25.4375 14.8002 25.3997 14.0198 25.3327C13.9548 25.3241 13.8894 25.3189 13.8239 25.3172C13.5644 25.2931 13.3083 25.2656 13.0625 25.2347V22.5036C14.2042 22.6263 15.3517 22.6876 16.5 22.6875C17.6483 22.6876 18.7958 22.6263 19.9375 22.5036V25.2347C19.5095 25.2863 19.0661 25.3309 18.6055 25.3636C18.5625 25.3653 18.5041 25.3688 18.4542 25.3739ZM28.1875 20.1334V21.3125C28.1875 22.1341 26.7644 23.4111 24.0625 24.3272V21.7491C25.0912 21.4791 26.0965 21.1267 27.0686 20.6955C27.4628 20.5179 27.8357 20.3305 28.1875 20.1334ZM16.5 10.3125C24.0625 10.3125 28.1875 13.0367 28.1875 14.4375C28.1875 15.8383 24.0625 18.5625 16.5 18.5625C8.9375 18.5625 4.8125 15.8383 4.8125 14.4375C4.8125 13.0367 8.9375 10.3125 16.5 10.3125ZM4.8125 21.3125V20.1334C5.16542 20.3294 5.53838 20.5161 5.93141 20.6938C6.90355 21.125 7.90883 21.4774 8.9375 21.7473V24.3255C6.23562 23.4111 4.8125 22.1341 4.8125 21.3125ZM15.8125 29.5625C16.0411 29.5625 16.2697 29.5625 16.5 29.5625C17.1233 29.5625 17.7404 29.5442 18.3511 29.5075C18.861 29.6874 19.3898 29.8512 19.9375 29.9991V32.5772C17.2356 31.6611 15.8125 30.3841 15.8125 29.5625ZM24.0625 33.4847V30.7553C25.2042 30.8776 26.3517 30.9384 27.5 30.9375C28.6483 30.9376 29.7958 30.8763 30.9375 30.7536V33.4847C28.6538 33.7551 26.3462 33.7551 24.0625 33.4847ZM35.0625 32.5772V29.9991C36.0912 29.7291 37.0965 29.3767 38.0686 28.9455C38.4628 28.769 38.8357 28.5822 39.1875 28.3852V29.5625C39.1875 30.3841 37.7644 31.6611 35.0625 32.5772Z" fill="#14F195"/>
</svg>
