<svg width="234" height="44" viewBox="0 0 234 44" fill="none" xmlns="http://www.w3.org/2000/svg">
<path d="M32.3125 14.8002V14.4375C32.3125 11.9247 30.4511 9.70234 27.0686 8.18125C24.212 6.89562 20.4531 6.1875 16.5 6.1875C12.5469 6.1875 8.78797 6.89562 5.93141 8.18125C2.54891 9.70234 0.6875 11.9247 0.6875 14.4375V21.3125C0.6875 23.8253 2.54891 26.0477 5.93141 27.5687C7.76955 28.3642 9.70515 28.9121 11.6875 29.1981V29.5625C11.6875 32.0753 13.5489 34.2977 16.9314 35.8187C19.788 37.1044 23.5469 37.8125 27.5 37.8125C31.4531 37.8125 35.212 37.1044 38.0686 35.8187C41.4511 34.2977 43.3125 32.0753 43.3125 29.5625V22.6875C43.3125 18.8822 38.9658 15.8263 32.3125 14.8002ZM39.1875 22.6875C39.1875 24.0195 35.4458 26.5513 28.5639 26.7919C30.9942 25.3344 32.3125 23.4266 32.3125 21.3125V18.9819C36.7606 19.7914 39.1875 21.5669 39.1875 22.6875ZM18.4542 25.3739C17.8303 25.4152 17.1789 25.4375 16.5 25.4375C15.6269 25.4375 14.8002 25.3997 14.0198 25.3327C13.9548 25.3241 13.8894 25.3189 13.8239 25.3172C13.5644 25.2931 13.3083 25.2656 13.0625 25.2347V22.5036C14.2042 22.6263 15.3517 22.6876 16.5 22.6875C17.6483 22.6876 18.7958 22.6263 19.9375 22.5036V25.2347C19.5095 25.2863 19.0661 25.3309 18.6055 25.3636C18.5625 25.3653 18.5041 25.3688 18.4542 25.3739ZM28.1875 20.1334V21.3125C28.1875 22.1341 26.7644 23.4111 24.0625 24.3272V21.7491C25.0912 21.4791 26.0965 21.1267 27.0686 20.6955C27.4628 20.5179 27.8357 20.3305 28.1875 20.1334ZM16.5 10.3125C24.0625 10.3125 28.1875 13.0367 28.1875 14.4375C28.1875 15.8383 24.0625 18.5625 16.5 18.5625C8.9375 18.5625 4.8125 15.8383 4.8125 14.4375C4.8125 13.0367 8.9375 10.3125 16.5 10.3125ZM4.8125 21.3125V20.1334C5.16542 20.3294 5.53838 20.5161 5.93141 20.6938C6.90355 21.125 7.90883 21.4774 8.9375 21.7473V24.3255C6.23562 23.4111 4.8125 22.1341 4.8125 21.3125ZM15.8125 29.5625C16.0411 29.5625 16.2697 29.5625 16.5 29.5625C17.1233 29.5625 17.7404 29.5442 18.3511 29.5075C18.861 29.6874 19.3898 29.8512 19.9375 29.9991V32.5772C17.2356 31.6611 15.8125 30.3841 15.8125 29.5625ZM24.0625 33.4847V30.7553C25.2042 30.8776 26.3517 30.9384 27.5 30.9375C28.6483 30.9376 29.7958 30.8763 30.9375 30.7536V33.4847C28.6538 33.7551 26.3462 33.7551 24.0625 33.4847ZM35.0625 32.5772V29.9991C36.0912 29.7291 37.0965 29.3767 38.0686 28.9455C38.4628 28.769 38.8357 28.5822 39.1875 28.3852V29.5625C39.1875 30.3841 37.7644 31.6611 35.0625 32.5772Z" fill="#14F195"/>
<path d="M66.75 24.9062C66.7083 25.1042 66.7448 25.276 66.8594 25.4219C66.974 25.5677 67.1302 25.6406 67.3281 25.6406H71.75C71.9479 25.6406 72.1042 25.7135 72.2188 25.8594C72.3333 25.9948 72.3698 26.1667 72.3281 26.375L71.0781 32.2656C71.0365 32.4635 70.9271 32.6354 70.75 32.7812C70.5729 32.9271 70.3854 33 70.1875 33H55.4531C55.2552 33 55.099 32.9271 54.9844 32.7812C54.8698 32.6354 54.8333 32.4635 54.875 32.2656L59.25 11.6406C59.3021 11.4427 59.4115 11.2708 59.5781 11.125C59.7552 10.9792 59.9479 10.9062 60.1562 10.9062H68.9844C69.1927 10.9062 69.3542 10.9792 69.4688 11.125C69.5729 11.2708 69.6042 11.4427 69.5625 11.6406L66.75 24.9062ZM84.2656 20.4844C84.3073 20.276 84.276 20.1042 84.1719 19.9688C84.0573 19.8229 83.8958 19.75 83.6875 19.75H82.8906C82.6927 19.75 82.5052 19.8229 82.3281 19.9688C82.151 20.1042 82.0417 20.276 82 20.4844L81.375 23.4219C81.3333 23.6302 81.3698 23.8073 81.4844 23.9531C81.599 24.0885 81.7552 24.1562 81.9531 24.1562H82.75C82.9583 24.1562 83.1458 24.0885 83.3125 23.9531C83.4896 23.8073 83.599 23.6302 83.6406 23.4219L84.2656 20.4844ZM87.75 10.9062C89.2708 10.9062 90.4583 11.4479 91.3125 12.5312C92.1562 13.6042 92.4167 14.9062 92.0938 16.4375L89.75 27.4844C89.4271 29.0052 88.6094 30.3021 87.2969 31.375C85.9948 32.4583 84.5781 33 83.0469 33H77.8906C76.3698 33 75.1875 32.4583 74.3438 31.375C73.4896 30.3021 73.224 29.0052 73.5469 27.4844L75.8906 16.4375C76.224 14.9062 77.0417 13.6042 78.3438 12.5312C79.6562 11.4479 81.0729 10.9062 82.5938 10.9062H87.75ZM102.547 17.5312C102.599 17.2917 102.505 17.1719 102.266 17.1719H100.734C100.484 17.1719 100.333 17.2917 100.281 17.5312L99.9688 19.0156C99.9167 19.2552 100.016 19.375 100.266 19.375H101.797C102.036 19.375 102.182 19.2552 102.234 19.0156L102.547 17.5312ZM108.969 20.1094C108.625 21.7135 107.75 23.0625 106.344 24.1562C107.292 25.25 107.594 26.6042 107.25 28.2188L106.391 32.2656C106.349 32.4635 106.26 32.6354 106.125 32.7812C105.99 32.9271 105.849 33 105.703 33H99.3906C99.2448 33 99.1354 32.9271 99.0625 32.7812C98.9896 32.6354 98.9792 32.4635 99.0312 32.2656L100.359 26C100.411 25.7604 100.312 25.6406 100.062 25.6406H99.3281C99.0781 25.6406 98.9271 25.7604 98.875 26L97.5469 32.2656C97.5052 32.4635 97.4167 32.6354 97.2812 32.7812C97.1562 32.9271 97.0208 33 96.875 33H90.5625C90.4167 33 90.3073 32.9271 90.2344 32.7812C90.1615 32.6354 90.1458 32.4635 90.1875 32.2656L94.5625 11.6406C94.6146 11.4427 94.7031 11.2708 94.8281 11.125C94.9635 10.9792 95.1042 10.9062 95.25 10.9062H105.594C107.062 10.9062 108.208 11.4271 109.031 12.4688C109.854 13.5104 110.109 14.7708 109.797 16.25L108.969 20.1094ZM127.172 17.5312C127.13 17.7396 127.021 17.9167 126.844 18.0625C126.677 18.1979 126.49 18.2656 126.281 18.2656H121.5C121.25 18.2656 121.099 18.3906 121.047 18.6406L120.891 19.375C120.839 19.625 120.938 19.75 121.188 19.75H124.5C124.698 19.75 124.854 19.8229 124.969 19.9688C125.083 20.1042 125.12 20.276 125.078 20.4844L124.453 23.4219C124.411 23.6302 124.302 23.8073 124.125 23.9531C123.948 24.0885 123.76 24.1562 123.562 24.1562H120.25C120 24.1562 119.849 24.2812 119.797 24.5312L119.641 25.2656C119.589 25.5156 119.682 25.6406 119.922 25.6406H124.719C124.917 25.6406 125.073 25.7135 125.188 25.8594C125.302 25.9948 125.339 26.1667 125.297 26.375L124.047 32.2656C124.005 32.4635 123.896 32.6354 123.719 32.7812C123.542 32.9271 123.354 33 123.156 33H108.422C108.224 33 108.068 32.9271 107.953 32.7812C107.839 32.6354 107.802 32.4635 107.844 32.2656L111.203 16.4375C111.526 14.9062 112.344 13.6042 113.656 12.5312C114.969 11.4479 116.385 10.9062 117.906 10.9062H127.844C128.052 10.9062 128.214 10.9792 128.328 11.125C128.432 11.2708 128.464 11.4427 128.422 11.6406L127.172 17.5312ZM153.234 10.9062C153.745 10.9062 154.141 11.0885 154.422 11.4531C154.703 11.8073 154.792 12.2396 154.688 12.75L150.453 32.625C150.401 32.875 150.255 33 150.016 33H143.391C143.141 33 143.042 32.875 143.094 32.625L146.062 18.6406C146.115 18.3906 146.021 18.2656 145.781 18.2656H145.047C144.797 18.2656 144.646 18.3906 144.594 18.6406L141.625 32.625C141.573 32.875 141.422 33 141.172 33H134.547C134.307 33 134.214 32.875 134.266 32.625L137.234 18.6406C137.286 18.3906 137.188 18.2656 136.938 18.2656H136.203C135.964 18.2656 135.818 18.3906 135.766 18.6406L132.781 32.625C132.729 32.875 132.583 33 132.344 33H125.719C125.469 33 125.37 32.875 125.422 32.625L129.641 12.75C129.755 12.2396 130.031 11.8073 130.469 11.4531C130.906 11.0885 131.375 10.9062 131.875 10.9062H136.672C137.078 10.9062 137.391 11.0521 137.609 11.3438C137.839 11.625 137.911 11.9688 137.828 12.375C137.911 11.9688 138.13 11.625 138.484 11.3438C138.828 11.0521 139.203 10.9062 139.609 10.9062H145.5C145.906 10.9062 146.224 11.0521 146.453 11.3438C146.682 11.625 146.75 11.9688 146.656 12.375C146.75 11.9688 146.969 11.625 147.312 11.3438C147.667 11.0521 148.047 10.9062 148.453 10.9062H153.234ZM171.297 17.5312C171.255 17.7396 171.146 17.9167 170.969 18.0625C170.802 18.1979 170.615 18.2656 170.406 18.2656H162.672C162.432 18.2656 162.286 18.3906 162.234 18.6406L162.078 19.375C162.026 19.625 162.12 19.75 162.359 19.75H170.094C170.292 19.75 170.448 19.8229 170.562 19.9688C170.677 20.1042 170.714 20.276 170.672 20.4844L169.188 27.4844C168.865 29.0052 168.047 30.3021 166.734 31.375C165.432 32.4583 164.016 33 162.484 33H152.547C152.349 33 152.193 32.9271 152.078 32.7812C151.964 32.6354 151.927 32.4635 151.969 32.2656L153.219 26.375C153.26 26.1667 153.37 25.9948 153.547 25.8594C153.724 25.7135 153.911 25.6406 154.109 25.6406H161.844C162.094 25.6406 162.245 25.5156 162.297 25.2656L162.453 24.5312C162.505 24.2812 162.406 24.1562 162.156 24.1562H154.422C154.224 24.1562 154.068 24.0885 153.953 23.9531C153.839 23.8073 153.802 23.6302 153.844 23.4219L155.328 16.4375C155.651 14.9062 156.469 13.6042 157.781 12.5312C159.094 11.4479 160.51 10.9062 162.031 10.9062H171.969C172.177 10.9062 172.339 10.9792 172.453 11.125C172.557 11.2708 172.589 11.4427 172.547 11.6406L171.297 17.5312ZM198.469 10.9062C198.667 10.9062 198.823 10.9792 198.938 11.125C199.052 11.2708 199.089 11.4427 199.047 11.6406L196 25.9688C195.958 26.1458 195.87 26.3021 195.734 26.4375L189.141 32.7344C188.953 32.9115 188.745 33 188.516 33H184.281C184.052 33 183.885 32.9115 183.781 32.7344L182.484 30.6562L180.312 32.7344C180.125 32.9115 179.917 33 179.688 33H175.453C175.224 33 175.052 32.9115 174.938 32.7344L171.031 26.4375C170.948 26.3021 170.927 26.1458 170.969 25.9688L174 11.6406C174.052 11.4427 174.161 11.2708 174.328 11.125C174.505 10.9792 174.698 10.9062 174.906 10.9062H180.797C180.995 10.9062 181.151 10.9792 181.266 11.125C181.38 11.2708 181.417 11.4427 181.375 11.6406L178.859 23.4375C178.849 23.5208 178.865 23.599 178.906 23.6719L179.172 24.1094C179.224 24.2031 179.307 24.25 179.422 24.25C179.547 24.25 179.651 24.2031 179.734 24.1094L180.203 23.6719C180.276 23.599 180.323 23.5208 180.344 23.4375L182.844 11.6406C182.885 11.4427 182.995 11.2708 183.172 11.125C183.349 10.9792 183.536 10.9062 183.734 10.9062H189.625C189.833 10.9062 189.995 10.9792 190.109 11.125C190.214 11.2708 190.245 11.4427 190.203 11.6406L187.703 23.4375C187.682 23.5208 187.693 23.599 187.734 23.6719L188.016 24.1094C188.068 24.2031 188.151 24.25 188.266 24.25C188.38 24.25 188.484 24.2031 188.578 24.1094L189.031 23.6719C189.104 23.599 189.151 23.5208 189.172 23.4375L191.688 11.6406C191.729 11.4427 191.833 11.2708 192 11.125C192.177 10.9792 192.37 10.9062 192.578 10.9062H198.469ZM206.656 26C206.698 25.8021 206.661 25.6302 206.547 25.4844C206.443 25.3385 206.286 25.2656 206.078 25.2656H205.281C205.083 25.2656 204.896 25.3385 204.719 25.4844C204.542 25.6302 204.432 25.8021 204.391 26L204.234 26.7344C204.193 26.9427 204.229 27.1198 204.344 27.2656C204.458 27.4115 204.615 27.4844 204.812 27.4844H205.609C205.807 27.4844 205.995 27.4115 206.172 27.2656C206.349 27.1198 206.458 26.9427 206.5 26.7344L206.656 26ZM211.312 10.9062C212.833 10.9062 214.021 11.4479 214.875 12.5312C215.719 13.6042 215.979 14.9062 215.656 16.4375L213.312 27.4844C212.99 29.0052 212.172 30.3021 210.859 31.375C209.557 32.4583 208.141 33 206.609 33H201.453C199.932 33 198.75 32.4583 197.906 31.375C197.052 30.3021 196.786 29.0052 197.109 27.4844L197.578 25.2656C197.901 23.7448 198.719 22.4427 200.031 21.3594C201.333 20.2865 202.75 19.75 204.281 19.75H207.953C208.203 19.75 208.354 19.625 208.406 19.375L208.484 19.0156C208.526 18.8073 208.49 18.6302 208.375 18.4844C208.26 18.3385 208.104 18.2656 207.906 18.2656H200.547C200.339 18.2656 200.177 18.1979 200.062 18.0625C199.948 17.9167 199.911 17.7396 199.953 17.5312L201.219 11.6406C201.26 11.4427 201.37 11.2708 201.547 11.125C201.714 10.9792 201.901 10.9062 202.109 10.9062H211.312ZM226.109 17.5312C226.161 17.2917 226.068 17.1719 225.828 17.1719H224.297C224.047 17.1719 223.896 17.2917 223.844 17.5312L223.531 19.0156C223.479 19.2552 223.578 19.375 223.828 19.375H225.359C225.599 19.375 225.745 19.2552 225.797 19.0156L226.109 17.5312ZM229.156 10.9062C230.625 10.9062 231.771 11.4271 232.594 12.4688C233.417 13.5104 233.672 14.7708 233.359 16.25L232.5 20.2969C232.177 21.776 231.385 23.0365 230.125 24.0781C228.865 25.1198 227.495 25.6406 226.016 25.6406H222.516L221.109 32.2656C221.068 32.4635 220.979 32.6354 220.844 32.7812C220.719 32.9271 220.583 33 220.438 33H214.125C213.979 33 213.87 32.9271 213.797 32.7812C213.724 32.6354 213.708 32.4635 213.75 32.2656L218.125 11.6406C218.177 11.4427 218.266 11.2708 218.391 11.125C218.526 10.9792 218.667 10.9062 218.812 10.9062H229.156Z" fill="white"/>
</svg>
