<?xml version="1.0" encoding="UTF-8"?>
<svg version="1.1" xmlns="http://www.w3.org/2000/svg" width="440" height="490">
<path d="M0 0 C145.2 0 290.4 0 440 0 C440 18.81 440 37.62 440 57 C294.8 57 149.6 57 0 57 C0 38.19 0 19.38 0 0 Z " fill="#D69830" transform="translate(0,0)"/>
<path d="M0 0 C115.5 0 231 0 350 0 C350 18.81 350 37.62 350 57 C234.5 57 119 57 0 57 C0 38.19 0 19.38 0 0 Z " fill="#D79930" transform="translate(45,80)"/>
<path d="M0 0 C19.14 0 38.28 0 58 0 C58 109.23 58 218.46 58 331 C38.86 331 19.72 331 0 331 C0 221.77 0 112.54 0 0 Z " fill="#E0A934" transform="translate(93,159)"/>
<path d="M0 0 C19.14 0 38.28 0 58 0 C58 89.1 58 178.2 58 270 C38.86 270 19.72 270 0 270 C0 180.9 0 91.8 0 0 Z " fill="#D89A31" transform="translate(191,158)"/>
<path d="M0 0 C19.14 0 38.28 0 58 0 C58 70.29 58 140.58 58 213 C38.86 213 19.72 213 0 213 C0 142.71 0 72.42 0 0 Z " fill="#CE8B2E" transform="translate(289,158)"/>
</svg>
